<mxfile host="app.diagrams.net" agent="Mozilla/5.0 (Macintosh; Intel Mac OS X 10_15_7) AppleWebKit/537.36 (KHTML, like Gecko) Chrome/128.0.0.0 Safari/537.36" version="24.7.12">
  <diagram name="第 1 页" id="T0lX2_VsgfHfZJUMZZ5F">
    <mxGraphModel dx="2074" dy="1145" grid="1" gridSize="10" guides="1" tooltips="1" connect="1" arrows="1" fold="1" page="1" pageScale="1" pageWidth="827" pageHeight="1169" math="0" shadow="0">
      <root>
        <mxCell id="0" />
        <mxCell id="1" parent="0" />
        <mxCell id="LEYOkKM93aV67lqYFIVO-1" value="R" style="ellipse;whiteSpace=wrap;html=1;aspect=fixed;" vertex="1" parent="1">
          <mxGeometry x="320" y="480" width="60" height="60" as="geometry" />
        </mxCell>
        <mxCell id="LEYOkKM93aV67lqYFIVO-2" value="A" style="ellipse;whiteSpace=wrap;html=1;aspect=fixed;" vertex="1" parent="1">
          <mxGeometry x="260" y="585" width="60" height="60" as="geometry" />
        </mxCell>
        <mxCell id="LEYOkKM93aV67lqYFIVO-3" value="D" style="ellipse;whiteSpace=wrap;html=1;aspect=fixed;" vertex="1" parent="1">
          <mxGeometry x="370" y="585" width="60" height="60" as="geometry" />
        </mxCell>
        <mxCell id="LEYOkKM93aV67lqYFIVO-4" value="B" style="ellipse;whiteSpace=wrap;html=1;aspect=fixed;" vertex="1" parent="1">
          <mxGeometry x="210" y="690" width="60" height="60" as="geometry" />
        </mxCell>
        <mxCell id="LEYOkKM93aV67lqYFIVO-5" value="C" style="ellipse;whiteSpace=wrap;html=1;aspect=fixed;" vertex="1" parent="1">
          <mxGeometry x="310" y="690" width="60" height="60" as="geometry" />
        </mxCell>
        <mxCell id="LEYOkKM93aV67lqYFIVO-7" value="" style="endArrow=none;html=1;rounded=0;exitX=0.5;exitY=0;exitDx=0;exitDy=0;" edge="1" parent="1" source="LEYOkKM93aV67lqYFIVO-2" target="LEYOkKM93aV67lqYFIVO-1">
          <mxGeometry width="50" height="50" relative="1" as="geometry">
            <mxPoint x="390" y="610" as="sourcePoint" />
            <mxPoint x="440" y="560" as="targetPoint" />
          </mxGeometry>
        </mxCell>
        <mxCell id="LEYOkKM93aV67lqYFIVO-8" value="" style="endArrow=none;html=1;rounded=0;exitX=0.5;exitY=0;exitDx=0;exitDy=0;entryX=0.75;entryY=0.917;entryDx=0;entryDy=0;entryPerimeter=0;" edge="1" parent="1" source="LEYOkKM93aV67lqYFIVO-3" target="LEYOkKM93aV67lqYFIVO-1">
          <mxGeometry width="50" height="50" relative="1" as="geometry">
            <mxPoint x="300" y="595" as="sourcePoint" />
            <mxPoint x="341" y="543" as="targetPoint" />
          </mxGeometry>
        </mxCell>
        <mxCell id="LEYOkKM93aV67lqYFIVO-9" value="" style="endArrow=none;html=1;rounded=0;entryX=0.5;entryY=0;entryDx=0;entryDy=0;" edge="1" parent="1" source="LEYOkKM93aV67lqYFIVO-2" target="LEYOkKM93aV67lqYFIVO-4">
          <mxGeometry width="50" height="50" relative="1" as="geometry">
            <mxPoint x="410" y="595" as="sourcePoint" />
            <mxPoint x="375" y="545" as="targetPoint" />
          </mxGeometry>
        </mxCell>
        <mxCell id="LEYOkKM93aV67lqYFIVO-10" value="" style="endArrow=none;html=1;rounded=0;entryX=0.5;entryY=0;entryDx=0;entryDy=0;exitX=0.75;exitY=0.917;exitDx=0;exitDy=0;exitPerimeter=0;" edge="1" parent="1" source="LEYOkKM93aV67lqYFIVO-2" target="LEYOkKM93aV67lqYFIVO-5">
          <mxGeometry width="50" height="50" relative="1" as="geometry">
            <mxPoint x="283" y="650" as="sourcePoint" />
            <mxPoint x="250" y="700" as="targetPoint" />
          </mxGeometry>
        </mxCell>
        <mxCell id="LEYOkKM93aV67lqYFIVO-11" value="R" style="ellipse;whiteSpace=wrap;html=1;aspect=fixed;" vertex="1" parent="1">
          <mxGeometry x="640" y="480" width="60" height="60" as="geometry" />
        </mxCell>
        <mxCell id="LEYOkKM93aV67lqYFIVO-12" value="A" style="ellipse;whiteSpace=wrap;html=1;aspect=fixed;" vertex="1" parent="1">
          <mxGeometry x="620" y="710" width="60" height="60" as="geometry" />
        </mxCell>
        <mxCell id="LEYOkKM93aV67lqYFIVO-13" value="D" style="ellipse;whiteSpace=wrap;html=1;aspect=fixed;" vertex="1" parent="1">
          <mxGeometry x="690" y="585" width="60" height="60" as="geometry" />
        </mxCell>
        <mxCell id="LEYOkKM93aV67lqYFIVO-14" value="B" style="ellipse;whiteSpace=wrap;html=1;aspect=fixed;" vertex="1" parent="1">
          <mxGeometry x="570" y="815" width="60" height="60" as="geometry" />
        </mxCell>
        <mxCell id="LEYOkKM93aV67lqYFIVO-15" value="C" style="ellipse;whiteSpace=wrap;html=1;aspect=fixed;" vertex="1" parent="1">
          <mxGeometry x="670" y="815" width="60" height="60" as="geometry" />
        </mxCell>
        <mxCell id="LEYOkKM93aV67lqYFIVO-16" value="" style="endArrow=none;html=1;rounded=0;exitX=0.5;exitY=0;exitDx=0;exitDy=0;entryX=0.5;entryY=1;entryDx=0;entryDy=0;" edge="1" parent="1" source="LEYOkKM93aV67lqYFIVO-12" target="LEYOkKM93aV67lqYFIVO-13">
          <mxGeometry width="50" height="50" relative="1" as="geometry">
            <mxPoint x="710" y="610" as="sourcePoint" />
            <mxPoint x="760" y="560" as="targetPoint" />
          </mxGeometry>
        </mxCell>
        <mxCell id="LEYOkKM93aV67lqYFIVO-17" value="" style="endArrow=none;html=1;rounded=0;exitX=0.5;exitY=0;exitDx=0;exitDy=0;entryX=0.75;entryY=0.917;entryDx=0;entryDy=0;entryPerimeter=0;" edge="1" parent="1" source="LEYOkKM93aV67lqYFIVO-13" target="LEYOkKM93aV67lqYFIVO-11">
          <mxGeometry width="50" height="50" relative="1" as="geometry">
            <mxPoint x="620" y="595" as="sourcePoint" />
            <mxPoint x="661" y="543" as="targetPoint" />
          </mxGeometry>
        </mxCell>
        <mxCell id="LEYOkKM93aV67lqYFIVO-18" value="" style="endArrow=none;html=1;rounded=0;entryX=0.5;entryY=0;entryDx=0;entryDy=0;" edge="1" parent="1" source="LEYOkKM93aV67lqYFIVO-12" target="LEYOkKM93aV67lqYFIVO-14">
          <mxGeometry width="50" height="50" relative="1" as="geometry">
            <mxPoint x="770" y="720" as="sourcePoint" />
            <mxPoint x="735" y="670" as="targetPoint" />
          </mxGeometry>
        </mxCell>
        <mxCell id="LEYOkKM93aV67lqYFIVO-19" value="" style="endArrow=none;html=1;rounded=0;entryX=0.5;entryY=0;entryDx=0;entryDy=0;exitX=0.75;exitY=0.917;exitDx=0;exitDy=0;exitPerimeter=0;" edge="1" parent="1" source="LEYOkKM93aV67lqYFIVO-12" target="LEYOkKM93aV67lqYFIVO-15">
          <mxGeometry width="50" height="50" relative="1" as="geometry">
            <mxPoint x="643" y="775" as="sourcePoint" />
            <mxPoint x="610" y="825" as="targetPoint" />
          </mxGeometry>
        </mxCell>
      </root>
    </mxGraphModel>
  </diagram>
</mxfile>
